<?xml version="1.0" encoding="utf-8"?>
<!-- Generator: Adobe Illustrator 21.0.0, SVG Export Plug-In . SVG Version: 6.00 Build 0)  -->
<svg version="1.1" id="Layer_1" xmlns="http://www.w3.org/2000/svg" xmlns:xlink="http://www.w3.org/1999/xlink" x="0px" y="0px"
	 viewBox="0 0 794 258" style="enable-background:new 0 0 794 258;" xml:space="preserve">
<style type="text/css">
	.st0{fill:url(#SVGID_1_);}
	.st1{fill:url(#SVGID_2_);}
	.st2{fill:url(#SVGID_3_);}
	.st3{fill:url(#SVGID_4_);}
	.st4{fill:url(#SVGID_5_);}
	.st5{fill:url(#SVGID_6_);}
	.st6{opacity:0.5;fill:url(#SVGID_7_);enable-background:new    ;}
	.st7{opacity:0.2;fill:url(#SVGID_8_);enable-background:new    ;}
	.st8{display:none;opacity:0.3;fill:url(#SVGID_9_);enable-background:new    ;}
	.st9{display:none;opacity:0.3;fill:url(#SVGID_10_);enable-background:new    ;}
	.st10{display:none;fill:url(#SVGID_11_);}
	.st11{fill:url(#SVGID_12_);}
	.st12{fill:#FFFFFF;}
	.st13{fill:#343434;}
	.st14{fill:#773E71;}
	.st15{fill:#343434;stroke:#343434;stroke-miterlimit:10;}
</style>
<g>
	
		<linearGradient id="SVGID_1_" gradientUnits="userSpaceOnUse" x1="641.7828" y1="2343.957" x2="712.8345" y2="2559.8984" gradientTransform="matrix(1 0 0 1 -1.510000e-02 -2260.2402)">
		<stop  offset="0.1697" style="stop-color:#CC7FBE"/>
		<stop  offset="1" style="stop-color:#87357E"/>
	</linearGradient>
	<path class="st0" d="M664.5,164.2c-4.2,0.5-8.4,0.9-12.6,1.2c-2.4,27.1,1.7,53,11,75c7.9,1.9,16.1,2.8,24.5,2.8
		c11.2,0,22.1-1.7,32.3-5c-1.7-34.9-25.5-71.1-30.7-78.7C681.1,161.6,672.9,163.1,664.5,164.2z"/>
	
		<linearGradient id="SVGID_2_" gradientUnits="userSpaceOnUse" x1="693.743" y1="2415.1267" x2="833.6926" y2="2441.3303" gradientTransform="matrix(1 0 0 1 -1.510000e-02 -2260.2402)">
		<stop  offset="1.210000e-02" style="stop-color:#E53898"/>
		<stop  offset="1" style="stop-color:#C01E62"/>
	</linearGradient>
	<path class="st1" d="M794,136.6c0-15.3-3.3-29.9-9.1-43.1c-17.8,30.3-52.6,55-95.9,66.1c5.2,7.5,29,43.8,30.7,78.7
		C762.8,224.5,794,184.2,794,136.6z"/>
	
		<linearGradient id="SVGID_3_" gradientUnits="userSpaceOnUse" x1="655.3143" y1="2431.8533" x2="609.1039" y2="2470.198" gradientTransform="matrix(1 0 0 1 -1.510000e-02 -2260.2402)">
		<stop  offset="0.1697" style="stop-color:#2AC7F2"/>
		<stop  offset="1" style="stop-color:#16ABE3"/>
	</linearGradient>
	<path class="st2" d="M651.9,165.3c-24.8,1.5-48.4-1.6-69.1-8.6c7.9,41.2,39.5,74,80.1,83.6C653.6,218.3,649.5,192.5,651.9,165.3z"
		/>
	
		<linearGradient id="SVGID_4_" gradientUnits="userSpaceOnUse" x1="654.9049" y1="2402.9399" x2="569.1682" y2="2375.896" gradientTransform="matrix(1 0 0 1 -1.510000e-02 -2260.2402)">
		<stop  offset="0.1697" style="stop-color:#CADA7D"/>
		<stop  offset="1" style="stop-color:#91AD3E"/>
	</linearGradient>
	<path class="st3" d="M593.4,86.4c-8,15-12.5,32-12.5,50.2c0,6.9,0.7,13.6,1.9,20.2c20.8,6.9,44.4,10.1,69.1,8.6
		c0.4-4.4,0.9-8.8,1.7-13.2c1.5-9,3.7-17.8,6.4-26.1C642.4,104.7,605.5,90.7,593.4,86.4z"/>
	
		<linearGradient id="SVGID_5_" gradientUnits="userSpaceOnUse" x1="685.0151" y1="2379.0078" x2="652.0781" y2="2294.4539" gradientTransform="matrix(1 0 0 1 -1.510000e-02 -2260.2402)">
		<stop  offset="0.1697" style="stop-color:#FCF668"/>
		<stop  offset="1" style="stop-color:#F3BE0F"/>
	</linearGradient>
	<path class="st4" d="M733.5,40.5c-14-6.7-29.6-10.5-46.1-10.5c-40.7,0-76.1,22.8-94,56.4c12.1,4.2,49,18.3,66.6,39.6
		C673.5,85.3,701.1,54,733.5,40.5z"/>
	
		<linearGradient id="SVGID_6_" gradientUnits="userSpaceOnUse" x1="678.48" y1="2399.03" x2="764.3576" y2="2322.3408" gradientTransform="matrix(1 0 0 1 -1.510000e-02 -2260.2402)">
		<stop  offset="0.1697" style="stop-color:#FDD16F"/>
		<stop  offset="1" style="stop-color:#C5681D"/>
	</linearGradient>
	<path class="st5" d="M733.5,40.5c-39.1,16.2-71.1,58.3-80,111.6c-0.7,4.4-1.3,8.8-1.7,13.2c4.2-0.3,8.4-0.6,12.6-1.2
		c54.6-6.8,99.4-34.9,120.4-70.7C774.6,70.3,756.3,51.5,733.5,40.5z"/>
	
		<radialGradient id="SVGID_7_" cx="682.0591" cy="2395.8701" r="95.4751" gradientTransform="matrix(1 0 0 1 -1.510000e-02 -2260.2402)" gradientUnits="userSpaceOnUse">
		<stop  offset="0" style="stop-color:#FBE15C"/>
		<stop  offset="0.9879" style="stop-color:#FFFFFF;stop-opacity:0"/>
	</radialGradient>
	<circle class="st6" cx="682" cy="135.6" r="95.5"/>
	
		<radialGradient id="SVGID_8_" cx="687.5535" cy="2397.1265" r="106.4616" gradientTransform="matrix(1 0 0 1 -1.510000e-02 -2260.2402)" gradientUnits="userSpaceOnUse">
		<stop  offset="0.6303" style="stop-color:#FFFFFF;stop-opacity:0"/>
		<stop  offset="1" style="stop-color:#000000"/>
	</radialGradient>
	<circle class="st7" cx="687.5" cy="136.9" r="106.5"/>
	
		<linearGradient id="SVGID_9_" gradientUnits="userSpaceOnUse" x1="713.0401" y1="2420.8625" x2="632.4103" y2="2347.2927" gradientTransform="matrix(1 0 0 1 -1.510000e-02 -2260.2402)">
		<stop  offset="0" style="stop-color:#000000"/>
		<stop  offset="1" style="stop-color:#FFFFFF;stop-opacity:0"/>
	</linearGradient>
	<path class="st8" d="M720.5,145.6c-12.1-0.4-55.4-1.8-86.3-2l14.8-62.3c4-0.9,8.2-1.3,12.5-1.3c32.8,0,59.3,26.5,59.3,59.3
		C720.9,141.4,720.8,143.5,720.5,145.6L720.5,145.6z"/>
	
		<linearGradient id="SVGID_10_" gradientUnits="userSpaceOnUse" x1="617.0121" y1="2312.0874" x2="706.188" y2="2402.9353" gradientTransform="matrix(1 0 0 1 -1.510000e-02 -2260.2402)">
		<stop  offset="0" style="stop-color:#000000"/>
		<stop  offset="1" style="stop-color:#FFFFFF;stop-opacity:0"/>
	</linearGradient>
	<path class="st9" d="M735.4,92.9c-10.9,2.9-34.8-14.9-44.4-13.5c-34.1,4.8-51.9,33-51.9,33l-3.8,32.3c-2.9,0-5.8,0-8.6,0
		c-15.5,0-32.4,1.8-41.2,2.9c-0.3-3.4-0.5-6.9-0.5-10.4c0-56.6,45.9-102.5,102.5-102.5c19.4,0,37.6,5.4,53.1,14.8
		C737.1,63.4,748.8,89.4,735.4,92.9L735.4,92.9z"/>
	
		<linearGradient id="SVGID_11_" gradientUnits="userSpaceOnUse" x1="830.32" y1="2356.5156" x2="721.0199" y2="2365.3611" gradientTransform="matrix(1 0 0 1 -1.510000e-02 -2260.2402)">
		<stop  offset="0" style="stop-color:#000000"/>
		<stop  offset="1" style="stop-color:#FFFFFF;stop-opacity:0"/>
	</linearGradient>
	<path class="st10" d="M789.6,149.6c-8.2-0.3-24.9-0.8-45.2-1.4v-95c27.6,18.4,45.8,49.8,45.8,85.4C790.2,142.3,790,146,789.6,149.6
		L789.6,149.6z"/>
	
		<linearGradient id="SVGID_12_" gradientUnits="userSpaceOnUse" x1="675.7248" y1="2342.8335" x2="724.7714" y2="2430.8945" gradientTransform="matrix(1 0 0 1 -1.510000e-02 -2260.2402)">
		<stop  offset="0" style="stop-color:#999999"/>
		<stop  offset="1" style="stop-color:#FFFFFF"/>
	</linearGradient>
	<path class="st11" d="M730.7,39.1v43.2c-12-9.8-25.1-15.6-41.9-15.6c-38.7,0-70,31.4-70,70c0,38.7,31.3,70,70,70
		c37.5,0,68.1-29.4,69.9-66.4h0.1V57.5c0,0-5.4-4.9-12-9.4C740.5,43.8,730.7,39.1,730.7,39.1z M688.8,178.8
		c-23.3,0-42.2-18.9-42.2-42.2c0-23.3,18.9-42.2,42.2-42.2c23.3,0,42.2,18.9,42.2,42.2C731,159.9,712.1,178.8,688.8,178.8z"/>
	<path class="st12" d="M732.9,40.2v42.1c-12-9.8-27.4-15.6-44.1-15.6c-38.7,0-70,31.4-70,70c0,38.7,31.3,70,70,70
		c37.5,0,68.1-29.4,69.9-66.4h0.1V57.5c0,0-5.4-4.9-12-9.4C740.5,43.8,732.9,40.2,732.9,40.2z M688.8,181.4
		c-24.7,0-44.8-20.1-44.8-44.8c0-24.7,20.1-44.8,44.8-44.8c24.7,0,44.8,20.1,44.8,44.8C733.6,161.4,713.6,181.4,688.8,181.4z"/>
</g>
<g>
	<path class="st13" d="M550,89.7c-9.6-10.4-23.7-14.4-43.5-14.4h-44.8v6.3h42.8v0.1c0.5,0,1,0,1.5,0c8.6,0,16.1,2.8,22.2,9.6
		c6.4,7.2,10.6,19.6,10.6,36.6c0,32.2-14.1,48.2-30.9,48.2c-1.3,0-2.4-0.1-3.4-0.3v0.3h-42.8v6.9h37.6c19,0,34.1-4.2,45.3-13.8
		c11.1-9.4,18.1-23.7,18.1-44.3C562.8,109.5,557.3,97.6,550,89.7z"/>
	<path class="st13" d="M390.4,134.4c-5.4-5.4-13.5-7.5-24.7-7.5h-25.5v3.3h24.3v0c0.3,0,0.6,0,0.9,0c4.9,0,9.2,1.5,12.6,5
		c3.6,3.8,6,10.2,6,19c0,16.8-7.8,21.7-17.3,21.7c-0.7,0-1.4,0.1-2,0h-1.1h-54.4v6.9h52.3c10.8,0,19.4-2.2,25.8-7.2
		c6.3-4.9,10.3-12.3,10.3-23.1C397.7,144.7,394.5,138.5,390.4,134.4z"/>
	<path class="st13" d="M322.6,82.8c5.4-5.4,13.5-7.5,24.7-7.5l50.5,0v6.3l-49.3,0v0c-0.3,0-0.6,0-0.9,0c-4.9,0-9.2,1.5-12.6,5
		c-3.6,3.8-6,7.2-6,16c0,16.8,8,25.1,17.6,25.1c0.7,0,1.3-0.1,1.9-0.1v0.1h24.3v3.6h-21.4c-10.8,0-19.4-2.2-25.8-7.2
		c-6.3-4.9-10.3-12.3-10.3-23.1C315.3,93.1,318.5,86.9,322.6,82.8z"/>
	<path class="st13" d="M203.9,79.1c3.8-2.7,9.3-3.8,17.1-3.8l34.9,0l0.1,6.3h-34.3h-0.5c-0.2,0,0.2,0,0,0c-3.4,0-7.4,0-9.8,1.7
		c-2.5,1.9-3.1,4.1-3,8.5c0.2,5.7,5.5,6.9,12.1,6.9c1,0,2.4,0,2.4,0h5.4v4.6h-4.5c-7.5,0-13.4-1.1-17.8-3.6
		c-4.4-2.5-7.1-6.2-7.1-11.6C198.9,84.3,201.1,81.2,203.9,79.1z"/>
	<path class="st13" d="M250.9,123.3c-3.8,2.7-9.3,3.8-17.1,3.8l-34.9,0l0.1-5.6h33.9l0,0c0.2,0,0.3,0,0.5,0c3.4,0,7.7-0.7,10.1-2.4
		c2.5-1.9,3.1-4.1,3-8.5c-0.2-5.7-5.5-6.9-12.1-6.9c-1,0-2.5,0-2.5,0h-7.9v-4.6h7c7.5,0,13.4,1.1,17.8,3.6c4.4,2.5,7.1,6.2,7.1,11.6
		C255.9,118.1,253.7,121.2,250.9,123.3z"/>
	<path class="st13" d="M415.8,137c3.6,0.6,5.1-0.2,7.3-0.8c2.2-0.6,6.9-2.6,16.2-10c3.4-0.1,9.3-2.5,12.6-6.5
		c3.9-4.4,6.3-10.7,6.3-18.3c0-12.6-7.1-25.8-22.7-25.8c-12.1,0-21.3,10-21.3,24.7c0,12.6,6,21.4,14.1,24.4
		c-5.5,4-8.6,8.1-13.2,10.4L415.8,137z M437.8,123.3c-0.6,0.4-5,0.6-6.7-0.5c-3.1-2-5.9-8.6-5.9-20.2c0-15,4.1-24,11.6-24
		c6.4,0,10.3,8.7,10.3,21C447.2,111.2,444,121.1,437.8,123.3L437.8,123.3z"/>
	<path class="st13" d="M277.4,197.8c3.6,0.6,5.1-0.2,7.3-0.8c2.2-0.6,6.9-2.6,16.2-10c3.4-0.1,9.3-2.5,12.6-6.5
		c3.9-4.4,6.3-10.7,6.3-18.3c0-12.6-7.2-25.8-22.7-25.8c-12.1,0-21.3,10-21.3,24.7c0,12.6,6,21.4,14.1,24.4
		c-5.5,4-8.6,8.1-13.2,10.4L277.4,197.8z M299.4,184.1c-0.6,0.4-5,0.6-6.7-0.5c-3.1-2-5.9-8.6-5.9-20.2c0-15,4.1-24,11.6-24
		c6.4,0,10.3,8.7,10.3,21C308.8,172,305.6,182,299.4,184.1L299.4,184.1z"/>
	<path class="st13" d="M448.3,148c-0.8,3.8-1.6,25-2.7,26.3c-1.1,1.3-0.5,1.7-3.5,1.7h-0.8h-9.7h-0.2c-4.2,0-3.2-0.5-4.3-2
		c-1.1-1.3-1.9-22.7-2.7-26.1h-7.7c0.2,3.3,0.6,31.3,0.8,36.9h1.8c1.1-1.6,2-1.9,4-1.9h26.3c1.8,0,2.8,0.5,3.9,1.9h1.9
		c0.1-2.2,0.4-31.1,0.8-36.6L448.3,148z"/>
	<path class="st13" d="M297.7,94.3c-0.8,3.8-2,22.7-3.1,24c-1.1,1.3-0.5,1.7-3.5,1.7h-6H50.9h5c-4.2,0-3.2-0.5-4.3-2
		c-1.1-1.3-1.5-20.4-2.3-23.8h-7.7c0.1,1,0.7,26.9,0.8,34.7h1.8c1.1-1.6,2-1.9-1.1-1.9h250.8c7,0,8,0.5,9,1.9h1.9
		c0.1-4.6,0.5-31.2,0.7-34.5L297.7,94.3z"/>
	<path class="st13" d="M133.8,127c1.8,0,2.8,0.5,3.9,1.9h1.9c0.1-3.1,0.4-29.8,0.7-34.5l-7.7-0.2c-0.8,3.8-1.7,24.1-2.8,25.4
		c-1.1,1.3-0.5,1.7-3.5,1.7h-0.8"/>
	<g>
		<rect x="290.8" y="75.3" class="st13" width="6.5" height="6.3"/>
	</g>
	<g>
		<rect x="83.7" y="75.3" class="st13" width="6.5" height="6.3"/>
		<rect x="94" y="75.3" class="st13" width="6.5" height="6.3"/>
	</g>
	<g>
		<rect x="427.9" y="142.3" class="st13" width="6.5" height="6.3"/>
		<rect x="438.2" y="142.3" class="st13" width="6.5" height="6.3"/>
	</g>
	<path class="st13" d="M475.5,81.6h-2.7c-4.2,0-5.7,0.5-6.9,2c-1.1,1.3-0.8,1.8-1.6,5.7h-2.6c0-5-0.1-10.2,0-14l1.6,0
		c1.1,1.6,9.8,0,11.8,0L475.5,81.6z"/>
	<path class="st13" d="M475.5,176h-2.7c-4.2,0-5.7-0.5-6.9-2c-1.1-1.3-0.8-1.8-1.6-5.7h-2.6c0,5-0.1,10.2,0,14l1.6,0
		c1.1-1.6,9.8,0,11.8,0L475.5,176z"/>
	<g>
		<path class="st14" d="M65,177.9L65,177.9c-0.6,3.2-2.5,4.9-5.4,4.9h-11c-3.4,0-6-1.7-6-6.9v-10.1c0-1.3-0.6-1.8-2.9-1.8v-1.9
			l6.5-0.4v14.4c0,2.9,1,4.5,2.7,4.6h9.6c2.1,0,3-2.1,3-5.3v-13.4c0-1.3,0-1.7-1.8-2.5l5.4-1.4v14c0,3.5,1.8,8.5,4.6,8.5H71v2h-0.5
			C68.4,182.8,66,180.8,65,177.9z M52.7,153.5c0,1.5-0.9,2.8-2.1,2.8c-1.2,0-2.1-1.3-2.1-2.8c0-1.5,0.9-2.8,2.1-2.8
			C51.8,150.7,52.7,151.9,52.7,153.5z M58.6,153.5c0,1.5-0.9,2.8-2,2.8c-1.2,0-2.1-1.3-2.1-2.8c0-1.5,0.9-2.8,2.1-2.8
			C57.7,150.7,58.6,151.9,58.6,153.5z"/>
		<path class="st14" d="M69.9,180.8H72c2.2-0.1,3.1-2.1,3.1-5.3v-13.4c0-1.3,0-1.7-1.8-2.5l5.4-1.4v17.4c0,4.6-2.5,7.2-5.9,7.2h-2.8
			V180.8z M78.6,149.7c0,1.5-0.9,2.8-2.1,2.8c-1.2,0-2-1.3-2-2.8c0-1.6,0.9-2.8,2-2.8C77.8,146.9,78.6,148.1,78.6,149.7z"/>
		<path class="st14" d="M109.6,182.8c-2.1,0-3.9-1.7-5.1-4.3c-1,3.3-3.5,4.3-6,4.3h-8.1c-1,5.6-3.4,9.9-9.1,9.9
			c-0.5,0-1.4-0.1-2.9-0.2c5.9-2.1,9.2-6.1,9.2-16.4v-14c0-1.3,0-1.7-1.8-2.5l5.4-1.4V172c0,3-0.1,6-0.4,8.8h7.1
			c2.2,0,3.1-1.9,3.1-5.1v-13.8c0-1.2-0.1-1.4-1.8-2.2l5.4-1.4v14c0,3.5,1.8,8.5,4.6,8.5h2.3v2L109.6,182.8L109.6,182.8z
			 M100.7,149.7c0,1.5-0.9,2.8-2.1,2.8c-1.2,0-2-1.3-2-2.8c0-1.6,0.8-2.8,2-2.8C99.9,146.9,100.7,148.1,100.7,149.7z M106.6,149.7
			c0,1.5-0.9,2.8-2.1,2.8c-1.2,0-2.1-1.3-2.1-2.8c0-1.6,0.9-2.8,2.1-2.8C105.7,146.9,106.6,148.1,106.6,149.7z"/>
		<path class="st14" d="M110,180.8h2.1c2.2-0.1,3.1-2.1,3.1-5.3v-13.4c0-1.3,0-1.7-1.8-2.5l5.4-1.4v17.4c0,4.6-2.5,7.2-5.9,7.2H110
			L110,180.8L110,180.8z M118.8,149.7c0,1.5-0.9,2.8-2.1,2.8c-1.2,0-2-1.3-2-2.8c0-1.6,0.9-2.8,2-2.8
			C117.9,146.9,118.8,148.1,118.8,149.7z"/>
		<path class="st14" d="M122,196.9l0.4-1.5h1.9c-0.8-0.8-1.6-2.1-1.6-3.7c0-2.4,1.2-4.3,3.2-4.3c1.5,0,2.6,1.3,2.6,2.9
			c0,1.1-0.5,1.5-1.2,1.5c-0.6,0-1.2-0.4-1.2-1.2c0-0.4,0.2-0.9,0.6-1.2c-0.2-0.4-0.5-0.6-0.8-0.6c-0.7,0-1.1,1.2-1.1,2.4
			c0,1.6,0.9,4.2,2.5,4.2h1.8v1.5L122,196.9L122,196.9z M122,182.8h10.4c3.6,0,5.6-2.5,5.6-7.2v-28.1l-5.4,1.4
			c1.8,0.8,1.8,1.2,1.8,2.4v24.2c0,3.2-0.9,5.3-3,5.3h-2.5v-28.2l-5.5,1.4c1.9,0.8,1.9,1.2,1.9,2.4v24.4H123L122,182.8z"/>
		<path class="st14" d="M143,151.4c0-1.3,0-1.7-1.8-2.4l5.4-1.4v35.2H143V151.4z"/>
		<path class="st14" d="M163.3,182.8c-3.4,0-6.1-1.7-6.1-6.9v-10.1c0-1.3-0.6-1.8-2.9-1.8v-1.9l6.5-0.4v14.4c0,2.9,1,4.5,2.7,4.6
			h9.7c2.1,0,3-2.1,3-5.3v-13.4c0-1.3,0-1.7-1.8-2.5l5.4-1.4v17.4c0,4.6-2,7.2-5.6,7.2L163.3,182.8L163.3,182.8z M165.1,150
			c-1.3,0-2.1,1.3-2.1,2.8c0,1.5,0.8,2.8,2.1,2.8c1.2,0,2-1.3,2-2.8C167.1,151.3,166.3,150,165.1,150z M171,150
			c-1.2,0-2.1,1.3-2.1,2.8c0,1.5,0.9,2.8,2.1,2.8c1.2,0,2.1-1.3,2.1-2.8C173.1,151.3,172.2,150,171,150z"/>
		<path class="st14" d="M186.1,151.8c0-1.3-0.6-1.8-2.9-1.8v-1.8l6.5-0.4v28.4c0,2.9,1,4.5,2.7,4.6h2v2h-2.3c-3.5,0-6-1.7-6-6.9
			L186.1,151.8L186.1,151.8z"/>
		<path class="st14" d="M193.3,180.8h1.5c4.7,0,5.6-4.4,6.6-8.9c0.9-4.6,2.2-9.7,8.1-9.7c5,0,7.6,6.7,7.6,11.8
			c0,5.3-2.9,11.3-8.7,11.3c-3.8,0-5.4-2.6-6.7-4.7c-1,1.4-2.5,2.3-4.6,2.3h-3.8L193.3,180.8L193.3,180.8z M208.7,163.9
			c-2.6,0-3.4,4-4.3,8.3c-0.5,2-0.8,4.1-1.6,6.2l0.4,0.7c1.1,1.6,2.7,4.2,5.3,4.2c2.6,0,4.8-4.1,4.8-9.1c0-5.2-1.5-10.1-4.4-10.3
			L208.7,163.9L208.7,163.9z"/>
		<path class="st14" d="M220.2,180.8h11.9V174c0-9.5-0.5-13.9-2.6-13.9c-1.5,0-3.6,3.6-6,8.3l-0.7-4.3c1-0.1,1.8-0.4,3.5-3.1
			c0.9-1.3,2.1-2.7,3.7-2.7h0.1c4.9,0.1,6,13.2,6,22.5h3.8v2h-18.5L220.2,180.8z"/>
		<path class="st14" d="M263.1,180.8l-0.9,2h-23.4v-2h18.8c-0.1-12.4-3.4-19-6.7-19c-3.6,0-6,4.8-7.3,10.5l-1.7-4.1
			c0.6-0.4,1-0.9,1.6-2.1c1.4-3.1,3.4-6.2,7.4-6.2c6.5,0,10.5,10.7,10.6,20.9L263.1,180.8L263.1,180.8z M252.8,152.2
			c0,1.7-1,2.9-2.1,2.9c-1.1,0-2.1-1.2-2.1-2.9c0-1.6,1-2.9,2.1-2.9C251.8,149.3,252.8,150.6,252.8,152.2z"/>
	</g>
	<g>
		<g>
			<polygon id="SVGID_13_" class="st13" points="40.7,135.9 262.8,135.9 262.8,138.4 40.7,138.4 			"/>
		</g>
	</g>
</g>
<g>
	<path class="st13" d="M21,34.2c11.3,0,20.5,9.2,20.5,20.5s-9.2,20.5-20.7,20.5c-11.3,0-20.5-9.4-20.5-20.7
		C0.4,43.5,9.6,34.2,21,34.2z M21,38.4c-9.1,0-16.5,7.3-16.5,16.5c0,9.1,7.3,16.5,16.5,16.5c9.1,0,16.5-7.3,16.5-16.5
		C37.5,45.7,30.1,38.4,21,38.4z"/>
	<path class="st13" d="M13.1,44.4L13.1,44.4c2.7,0,5.4,0,8.1,0c1.4,0,2.8,0.2,4.1,0.8c2,0.8,3,2.4,3.2,4.7c0.1,1.2,0,2.3-0.4,3.5
		c-0.5,1.3-1.3,2.3-2.5,2.9c-0.2,0.1-0.6,0.4-0.8,0.5c0.2,0.4,0.4,0.7,0.6,1c1.3,2.4,2.5,4.9,3.9,7.3c0,0.1,0.1,0.2,0.1,0.4
		c-0.1,0-0.2,0-0.2,0c-1.4,0-2.8,0-4.2,0c-0.1,0-0.2,0-0.4-0.2c-1.2-2.4-2.4-4.9-3.8-7.3c-0.1-0.1-0.2-0.2-0.4-0.2c-1,0-2,0-3,0
		c-0.1,0-0.1,0-0.2,0c0,2.5,0,5.2,0,7.7c-1.4,0-2.9,0-4.3,0C13.1,58.3,13.1,51.4,13.1,44.4z M17.4,54.1L17.4,54.1c1.3,0,2.6,0,3.9,0
		c0.8,0,1.4-0.2,2-0.8c0.7-0.6,1-1.3,1-2.3c0-0.8-0.1-1.6-0.7-2.3c-0.6-0.8-1.3-1-2.3-1c-1.3,0-2.5,0-3.9,0h-0.1
		C17.4,49.9,17.4,52.1,17.4,54.1z"/>
</g>
<g>
	<path class="st15" d="M55.8,209.4c-0.7-2.4-1.9-5.2-5.1-5.2c-2.9,0-4.3,2-4.3,4.1c0,2.7,1.8,3.9,4.9,5.5c3.3,1.6,6.7,3.4,6.7,7.5
		c0,4-3.5,7.3-8.7,7.3c-1.6,0-2.9-0.3-3.9-0.6c-1-0.3-1.5-0.6-1.9-0.8c-0.3-0.7-0.8-4.2-1.1-6l1.2-0.3c0.6,2.4,2.5,6.3,6.5,6.3
		c2.8,0,4.5-1.7,4.5-4.4c0-2.7-2.1-4-5-5.6c-2.7-1.3-6.4-3.2-6.4-7.4c0-3.8,3-6.9,8.1-6.9c1.8,0,3.6,0.4,5,0.9
		c0.2,1.3,0.3,2.9,0.7,5.4L55.8,209.4z"/>
	<path class="st15" d="M97,228v-1.1c3.1-0.2,3.5-0.5,3.5-3.7v-14.9c0-3.3-0.3-3.5-3.5-3.7v-1.1h10.5v1.1c-3.1,0.2-3.5,0.4-3.5,3.7
		v14.9c0,3.2,0.3,3.5,3.5,3.7v1.1H97z"/>
	<path class="st15" d="M173.8,204.6c-2.1,0.1-3.1,0.5-3.2,2.3c-0.1,1.2-0.2,2.9-0.2,6.4v15.1h-1.2l-16.9-19.7h-0.1l0,9.2
		c0,3.5,0.2,5.3,0.3,6.3c0.2,2,1.1,2.4,3.7,2.6v1.1h-9.2v-1.1c2.2-0.2,3.2-0.6,3.4-2.5c0.2-1.2,0.3-3,0.3-6.4v-8.1
		c0-2.8-0.1-3-0.8-3.9c-0.8-0.9-1.6-1.2-3.4-1.4v-1.1h5.9l16.4,18.6h0.1v-8.8c0-3.5-0.2-5.2-0.3-6.3c-0.2-1.8-1.1-2.3-3.8-2.4v-1.1
		h9.2V204.6z"/>
	<path class="st15" d="M236.7,221.5c-0.5,1.8-1.6,4.8-2.2,6c-1.1,0.3-4.5,1.1-7.4,1.1c-10,0-14.4-6.6-14.4-12.5
		c0-7.9,6.4-13.2,15.4-13.2c3.3,0,6.1,0.9,7.2,1.1c0.3,2.1,0.6,3.8,0.8,5.9l-1.2,0.3c-1.1-4.2-3.6-5.8-7.8-5.8
		c-6.6,0-10.1,5.3-10.1,10.9c0,7.1,4.4,11.9,10.4,11.9c4,0,6.2-2.1,8.2-6L236.7,221.5z"/>
	<path class="st15" d="M295.4,221.9c-0.3,1.4-1,4.9-1.3,6.1h-18.9v-1.1c3.5-0.3,3.8-0.6,3.8-3.7v-14.8c0-3.5-0.3-3.6-3.3-3.8v-1.1
		h17.5c0.1,1,0.2,3.5,0.4,5.6l-1.2,0.2c-0.4-1.6-0.8-2.5-1.3-3.3c-0.6-0.8-1.6-1.1-4.3-1.1h-2.9c-1.3,0-1.3,0.1-1.3,1.2v8.5h3.5
		c3.5,0,3.7-0.3,4.2-2.9h1.2v7.4h-1.2c-0.5-2.8-0.8-3-4.2-3h-3.5v6.9c0,1.8,0.2,2.6,0.9,3.1c0.7,0.4,2.2,0.4,3.9,0.4
		c2.8,0,4-0.3,4.8-1.2c0.7-0.8,1.4-2.1,2-3.6L295.4,221.9z"/>
	<path class="st15" d="M396.7,222.8c-0.5,1.7-1,3.5-1.4,5.2h-14.5v-0.9c2.1-2.1,4.3-4.2,6.2-6.3c2.4-2.7,4.7-5.8,4.7-9
		c0-3.1-1.7-4.9-4.4-4.9c-2.6,0-4.3,2-5.3,3.6l-0.9-0.8l2.3-3.2c1.2-1.3,3-2.2,5.2-2.2c3.5,0,6.6,2.5,6.6,6.4c0,3.2-1.4,5.4-5.1,9.1
		l-5.3,5.3h7c2.1,0,2.6-0.1,3.8-2.6L396.7,222.8z"/>
	<path class="st15" d="M444.1,204.1c5.8,0,7.9,6.3,7.9,12.1c0,5.5-2.1,12.1-7.9,12.1s-8-6.2-8-12.1
		C436,210.8,438.2,204.1,444.1,204.1L444.1,204.1z M444,205.5c-3.4,0-4.2,5.6-4.2,10.8c0,5.2,1,10.9,4.3,10.9
		c3.3,0,4.2-5.6,4.2-10.9C448.2,211,447.3,205.5,444,205.5L444,205.5z"/>
	<path class="st15" d="M499.2,204.1c5.8,0,7.9,6.3,7.9,12.1c0,5.5-2.1,12.1-7.9,12.1s-8-6.2-8-12.1
		C491.2,210.8,493.3,204.1,499.2,204.1L499.2,204.1z M499.1,205.5c-3.4,0-4.2,5.6-4.2,10.8c0,5.2,1,10.9,4.3,10.9
		c3.3,0,4.2-5.6,4.2-10.9C503.4,211,502.5,205.5,499.1,205.5L499.1,205.5z"/>
	<path class="st15" d="M562.8,205.1c-3.6,7.6-7.3,15.2-11,23l-3,0.4l-0.3-0.4c4.2-6.3,8.5-14.1,11.6-20.4h-8.4
		c-2.6,0-2.8,0.3-3.8,2.8h-1.1c0.4-2.3,0.6-4.2,0.8-5.8h14.9L562.8,205.1z"/>
</g>
</svg>
